<svg width="51" height="51" viewBox="0 0 51 51" fill="none" xmlns="http://www.w3.org/2000/svg">
<path d="M21.25 27.625C29.4504 27.625 36.125 34.2975 36.125 42.5C36.125 43.5996 35.2903 44.5053 34.2178 44.6143L8.5 44.625C7.32488 44.625 6.375 43.673 6.375 42.5C6.375 34.2975 13.0496 27.625 21.25 27.625ZM21.25 6.375C25.9377 6.375 29.75 10.1872 29.75 14.875C29.75 19.5627 25.9377 23.375 21.25 23.375C16.5623 23.375 12.75 19.5627 12.75 14.875C12.75 10.1872 16.5623 6.375 21.25 6.375ZM43.0215 9.23047C43.7928 8.34443 45.1334 8.25248 46.0195 9.02148C46.9056 9.79071 46.9996 11.1344 46.2305 12.0205L40.6816 18.3955C40.2821 18.8544 39.7016 19.1198 39.0918 19.124H39.0771C38.4738 19.124 37.8979 18.8673 37.4941 18.417L34.543 15.1162C33.7589 14.2429 33.8349 12.8982 34.708 12.1162C35.5856 11.3321 36.9291 11.4059 37.709 12.2812L39.0557 13.7881L43.0215 9.23047Z" fill="#244034"/>
<mask id="mask0_2_2532" style="mask-type:luminance" maskUnits="userSpaceOnUse" x="6" y="6" width="41" height="39">
<path d="M21.25 27.625C29.4504 27.625 36.125 34.2975 36.125 42.5C36.125 43.5996 35.2903 44.5053 34.2178 44.6143L8.5 44.625C7.32488 44.625 6.375 43.673 6.375 42.5C6.375 34.2975 13.0496 27.625 21.25 27.625ZM21.25 6.375C25.9377 6.375 29.75 10.1872 29.75 14.875C29.75 19.5627 25.9377 23.375 21.25 23.375C16.5623 23.375 12.75 19.5627 12.75 14.875C12.75 10.1872 16.5623 6.375 21.25 6.375ZM43.0215 9.23047C43.7928 8.34443 45.1334 8.25248 46.0195 9.02148C46.9056 9.79071 46.9996 11.1344 46.2305 12.0205L40.6816 18.3955C40.2821 18.8544 39.7016 19.1198 39.0918 19.124H39.0771C38.4738 19.124 37.8979 18.8673 37.4941 18.417L34.543 15.1162C33.7589 14.2429 33.8349 12.8982 34.708 12.1162C35.5856 11.3321 36.9291 11.4059 37.709 12.2812L39.0557 13.7881L43.0215 9.23047Z" fill="white"/>
</mask>
<g mask="url(#mask0_2_2532)">
<rect width="51" height="51" fill="black"/>
</g>
</svg>
