<svg width="31" height="30" viewBox="0 0 31 30" fill="none" xmlns="http://www.w3.org/2000/svg">
<path d="M13.7697 17.3752L10.8101 14.402C10.6563 14.247 10.469 14.164 10.2482 14.1529C10.0274 14.1418 9.82578 14.2282 9.64342 14.412C9.46764 14.5892 9.37976 14.7852 9.37976 15C9.37976 15.2148 9.46764 15.4108 9.64342 15.588L12.8387 18.807C13.1045 19.076 13.4149 19.2106 13.7697 19.2106C14.1246 19.2106 14.4349 19.076 14.7008 18.807L21.3566 12.0999C21.517 11.9383 21.601 11.7478 21.6087 11.5286C21.6153 11.3093 21.5313 11.1078 21.3566 10.924C21.1742 10.7413 20.9781 10.6482 20.7683 10.6449C20.5585 10.6416 20.3624 10.7313 20.18 10.914L13.7697 17.3752ZM10.0125 29.3093L7.84393 25.6551L3.75718 24.7865C3.4287 24.7256 3.16723 24.5484 2.97278 24.2549C2.77833 23.9615 2.69814 23.6504 2.73219 23.3215L3.12109 19.076L0.349351 15.887C0.11645 15.6467 0 15.351 0 15C0 14.649 0.11645 14.3528 0.349351 14.1114L3.12109 10.924L2.73219 6.67852C2.69923 6.34854 2.77943 6.03738 2.97278 5.74505C3.16613 5.45272 3.42705 5.27555 3.75553 5.21354L7.84228 4.34485L10.0109 0.690708C10.1889 0.393947 10.4278 0.189094 10.7277 0.0761473C11.0276 -0.0379063 11.338 -0.0229576 11.6588 0.120993L15.5 1.75705L19.3396 0.120993C19.6615 -0.0229576 19.9724 -0.0384602 20.2723 0.074486C20.5722 0.18854 20.8111 0.393393 20.9891 0.689047L23.1561 4.34319L27.2428 5.21354C27.5713 5.27444 27.8328 5.45161 28.0272 5.74505C28.2217 6.03849 28.3019 6.34965 28.2678 6.67852L27.8789 10.924L30.6506 14.113C30.8835 14.3533 31 14.649 31 15C31 15.351 30.8835 15.6472 30.6506 15.8886L27.8789 19.076L28.2678 23.3215C28.3008 23.6515 28.2206 23.9626 28.0272 24.2549C27.8339 24.5473 27.573 24.7244 27.2445 24.7865L23.1577 25.6551L20.9891 29.3093C20.8111 29.6061 20.5722 29.8109 20.2723 29.9239C19.9724 30.0379 19.662 30.023 19.3412 29.879L15.5 28.2429L11.6604 29.879C11.3385 30.023 11.0276 30.0385 10.7277 29.9255C10.4278 29.8115 10.1889 29.6066 10.0109 29.311" fill="url(#paint0_linear_2_2495)"/>
<defs>
<linearGradient id="paint0_linear_2_2495" x1="0.37274" y1="22.5021" x2="21.9699" y2="17.0751" gradientUnits="userSpaceOnUse">
<stop stop-color="#939393"/>
<stop offset="0.5" stop-color="#808080"/>
<stop offset="1" stop-color="#FE5800"/>
</linearGradient>
</defs>
</svg>
