<svg width="42" height="42" viewBox="0 0 42 42" fill="none" xmlns="http://www.w3.org/2000/svg">
<path d="M33.4688 0.934082V7.96899H40.5037L33.4688 0.934082Z" fill="black"/>
<path d="M16.7344 9.5625C17.6146 9.5625 18.3281 8.84895 18.3281 7.96875C18.3281 7.08855 17.6146 6.375 16.7344 6.375C15.8542 6.375 15.1406 7.08855 15.1406 7.96875C15.1406 8.84895 15.8542 9.5625 16.7344 9.5625Z" fill="black"/>
<path d="M16.7344 12.75C15.5562 12.75 14.5258 13.392 13.9749 14.3438H19.4938C18.9429 13.392 17.9125 12.75 16.7344 12.75Z" fill="black"/>
<path d="M31.875 11.1562C30.9941 11.1562 30.2812 10.4426 30.2812 9.5625V0H4.78125C2.14471 0 0 2.14471 0 4.78125V36.6562C0 39.2928 2.14471 41.4375 4.78125 41.4375H36.6562C39.2928 41.4375 41.4375 39.2928 41.4375 36.6562V11.1562H31.875ZM11.9531 7.96875C11.9531 5.33221 14.0978 3.1875 16.7344 3.1875C19.3709 3.1875 21.5156 5.33221 21.5156 7.96875C21.5156 9.05268 21.1393 10.042 20.5292 10.8448C22.086 12.0083 23.1094 13.8488 23.1094 15.9375C23.1094 16.8176 22.3965 17.5312 21.5156 17.5312H11.9531C11.0722 17.5312 10.3594 16.8176 10.3594 15.9375C10.3594 13.8488 11.3827 12.0083 12.9396 10.8448C12.3295 10.042 11.9531 9.05268 11.9531 7.96875ZM13.08 33.0462L8.82944 37.2959C8.51816 37.6072 8.11039 37.7628 7.70261 37.7628C7.29483 37.7628 6.88706 37.6072 6.57578 37.2959L4.4513 35.1714C3.82875 34.5489 3.82875 33.5403 4.4513 32.9178C5.07385 32.2952 6.0824 32.2952 6.70495 32.9178L7.70261 33.9154L10.8263 30.7925C11.4488 30.17 12.4574 30.17 13.08 30.7925C13.7025 31.4151 13.7025 32.4244 13.08 33.0462ZM13.08 25.0774L8.82944 29.3272C8.51816 29.6384 8.11039 29.7941 7.70261 29.7941C7.29483 29.7941 6.88706 29.6384 6.57578 29.3272L4.4513 27.2027C3.82875 26.5801 3.82875 25.5716 4.4513 24.949C5.07385 24.3265 6.0824 24.3265 6.70495 24.949L7.70261 25.9467L10.8263 22.8238C11.4488 22.2012 12.4574 22.2012 13.08 22.8238C13.7025 23.4463 13.7025 24.4557 13.08 25.0774ZM35.0625 35.0625H20.7188C19.8378 35.0625 19.125 34.3489 19.125 33.4688C19.125 32.5886 19.8378 31.875 20.7188 31.875H35.0625C35.9434 31.875 36.6562 32.5886 36.6562 33.4688C36.6562 34.3489 35.9434 35.0625 35.0625 35.0625ZM35.0625 27.0938H20.7188C19.8378 27.0938 19.125 26.3801 19.125 25.5C19.125 24.6199 19.8378 23.9062 20.7188 23.9062H35.0625C35.9434 23.9062 36.6562 24.6199 36.6562 25.5C36.6562 26.3801 35.9434 27.0938 35.0625 27.0938Z" fill="black"/>
</svg>
