<svg width="17" height="18" viewBox="0 0 17 18" fill="none" xmlns="http://www.w3.org/2000/svg">
<path fill-rule="evenodd" clip-rule="evenodd" d="M0 8.53439C0 6.27093 0.882808 4.10017 2.45422 2.49967C4.02563 0.899156 6.15691 0 8.37922 0C10.6015 0 12.7328 0.899156 14.3042 2.49967C15.8756 4.10017 16.7584 6.27093 16.7584 8.53439C16.7584 10.7979 15.8756 12.9686 14.3042 14.5691C12.7328 16.1696 10.6015 17.0688 8.37922 17.0688C6.15691 17.0688 4.02563 16.1696 2.45422 14.5691C0.882808 12.9686 0 10.7979 0 8.53439H0ZM7.90105 12.1871L12.7252 6.04462L11.8538 5.33456L7.74017 10.5701L4.82643 8.09743L4.1114 8.97135L7.90105 12.1882V12.1871Z" fill="url(#paint0_linear_2_2632)"/>
<defs>
<linearGradient id="paint0_linear_2_2632" x1="0.201501" y1="12.8028" x2="11.9446" y2="9.99904" gradientUnits="userSpaceOnUse">
<stop stop-color="#939393"/>
<stop offset="0.5" stop-color="#808080"/>
<stop offset="1" stop-color="#FE5800"/>
</linearGradient>
</defs>
</svg>
