<svg width="164" height="164" viewBox="0 0 164 164" fill="none" xmlns="http://www.w3.org/2000/svg">
<rect width="164" height="164" rx="82" fill="#FE5800"/>
<path d="M116.991 68.3665V66.4484C116.991 47.1643 101.284 31.457 82 31.457C62.7159 31.457 47.0086 47.1643 47.0086 66.4484V68.3665C41.0471 70.0772 36.6408 75.5203 36.6408 82.0001V118.288C36.6408 126.167 43.017 132.543 50.8966 132.543H113.103C120.983 132.543 127.359 126.167 127.359 118.288V82.0001C127.359 75.5203 122.953 70.0772 116.991 68.3665ZM54.7845 66.4484C54.7845 51.4151 66.9667 39.2329 82 39.2329C97.0333 39.2329 109.216 51.4151 109.216 66.4484V67.7444H101.44V66.4484C101.44 55.7177 92.7307 47.0088 82 47.0088C71.2693 47.0088 62.5604 55.7177 62.5604 66.4484V67.7444H54.7845V66.4484ZM93.6638 67.7444H70.3362V66.4484C70.3362 60.0204 75.572 54.7846 82 54.7846C88.4281 54.7846 93.6638 60.0204 93.6638 66.4484V67.7444ZM119.583 118.288C119.583 121.864 116.68 124.767 113.103 124.767H50.8966C47.3197 124.767 44.4167 121.864 44.4167 118.288V82.0001C44.4167 78.4232 47.3197 75.5203 50.8966 75.5203H113.103C116.68 75.5203 119.583 78.4232 119.583 82.0001V118.288Z" fill="black"/>
<path d="M82 83.2961C75.5719 83.2961 70.3362 88.5319 70.3362 94.9599C70.3362 100.04 73.602 104.291 78.112 105.898V113.104C78.112 115.229 79.8746 116.992 82 116.992C84.1254 116.992 85.8879 115.229 85.8879 113.104V105.898C90.3979 104.291 93.6638 99.9883 93.6638 94.9599C93.6638 88.5319 88.428 83.2961 82 83.2961ZM82 98.8479C79.8746 98.8479 78.112 97.0853 78.112 94.9599C78.112 92.8345 79.8746 91.072 82 91.072C84.1254 91.072 85.8879 92.8345 85.8879 94.9599C85.8879 97.0853 84.1254 98.8479 82 98.8479Z" fill="black"/>
</svg>
