<svg width="58" height="40" viewBox="0 0 58 40" fill="none" xmlns="http://www.w3.org/2000/svg">
<path d="M54.6294 0H33.4641C31.7345 0 30.3321 1.40182 30.3321 3.13071C30.3321 4.8596 31.7345 6.26142 33.4641 6.26142H37.6654V27.8132L30.7077 18.2398C29.7261 16.8889 28.1469 16.1729 26.4832 16.3232C24.8195 16.4741 23.3951 17.4631 22.673 18.9688L16.6976 31.4213L5.91614 10.5249C5.12364 8.9883 3.23466 8.38512 1.69741 9.17731C0.159509 9.97015 -0.443905 11.8584 0.349245 13.395L12.5731 37.0879C13.3849 38.6614 14.979 39.631 16.746 39.631C16.7692 39.631 16.7924 39.631 16.8157 39.631C18.6098 39.6051 20.2071 38.5846 20.9828 36.9667L27.1841 24.0438L35.4318 35.3919C36.6315 37.0428 38.7419 37.7285 40.6831 37.0976C42.6244 36.4673 43.9286 34.6726 43.9286 32.6322V6.26142H54.6294C56.359 6.26142 57.7613 4.8596 57.7613 3.13071C57.7613 1.40182 56.359 0 54.6294 0Z" fill="url(#paint0_linear_5_3907)"/>
<defs>
<linearGradient id="paint0_linear_5_3907" x1="0.694515" y1="29.726" x2="38.7024" y2="16.2551" gradientUnits="userSpaceOnUse">
<stop stop-color="#939393"/>
<stop offset="0.5" stop-color="#808080"/>
<stop offset="1" stop-color="#FE5800"/>
</linearGradient>
</defs>
</svg>
