<svg width="425" height="294" viewBox="0 0 425 294" fill="none" xmlns="http://www.w3.org/2000/svg">
<path d="M401.537 2.70325H245.968C233.255 2.70325 222.947 13.0069 222.947 25.7146C222.947 38.4223 233.255 48.726 245.968 48.726H276.848V207.136L225.708 136.769C218.493 126.84 206.886 121.577 194.657 122.682C182.428 123.792 171.959 131.06 166.651 142.128L122.731 233.656L43.4848 80.0637C37.6598 68.7691 23.7754 64.3356 12.4763 70.1584C1.17242 75.9859 -3.26279 89.8648 2.56702 101.159L92.4145 275.307C98.3819 286.872 110.098 293.999 123.086 293.999C123.257 293.999 123.428 293.999 123.599 293.999C136.786 293.809 148.526 286.308 154.228 274.416L199.808 179.43L260.431 262.841C269.249 274.975 284.761 280.016 299.029 275.378C313.298 270.746 322.884 257.554 322.884 242.556V48.726H401.537C414.25 48.726 424.558 38.4223 424.558 25.7146C424.558 13.0069 414.25 2.70325 401.537 2.70325Z" fill="url(#paint0_linear_3_2690)"/>
<path d="M401.537 2.70325H245.968C233.255 2.70325 222.947 13.0069 222.947 25.7146C222.947 38.4223 233.255 48.726 245.968 48.726H276.848V207.136L225.708 136.769C218.493 126.84 206.886 121.577 194.657 122.682C182.428 123.792 171.959 131.06 166.651 142.128L122.731 233.656L43.4848 80.0637C37.6598 68.7691 23.7754 64.3356 12.4763 70.1584C1.17242 75.9859 -3.26279 89.8648 2.56702 101.159L92.4145 275.307C98.3819 286.872 110.098 293.999 123.086 293.999C123.257 293.999 123.428 293.999 123.599 293.999C136.786 293.809 148.526 286.308 154.228 274.416L199.808 179.43L260.431 262.841C269.249 274.975 284.761 280.016 299.029 275.378C313.298 270.746 322.884 257.554 322.884 242.556V48.726H401.537C414.25 48.726 424.558 38.4223 424.558 25.7146C424.558 13.0069 414.25 2.70325 401.537 2.70325Z" fill="url(#paint1_linear_3_2690)"/>
<path d="M401.537 2.70325H245.968C233.255 2.70325 222.947 13.0069 222.947 25.7146C222.947 38.4223 233.255 48.726 245.968 48.726H276.848V207.136L225.708 136.769C218.493 126.84 206.886 121.577 194.657 122.682C182.428 123.792 171.959 131.06 166.651 142.128L122.731 233.656L43.4848 80.0637C37.6598 68.7691 23.7754 64.3356 12.4763 70.1584C1.17242 75.9859 -3.26279 89.8648 2.56702 101.159L92.4145 275.307C98.3819 286.872 110.098 293.999 123.086 293.999C123.257 293.999 123.428 293.999 123.599 293.999C136.786 293.809 148.526 286.308 154.228 274.416L199.808 179.43L260.431 262.841C269.249 274.975 284.761 280.016 299.029 275.378C313.298 270.746 322.884 257.554 322.884 242.556V48.726H401.537C414.25 48.726 424.558 38.4223 424.558 25.7146C424.558 13.0069 414.25 2.70325 401.537 2.70325Z" fill="url(#paint2_linear_3_2690)"/>
<path d="M187.172 0C172.965 0 161.447 11.5128 161.447 25.7141C161.447 39.9155 172.965 51.4282 187.172 51.4282C201.379 51.4282 212.896 39.9155 212.896 25.7141C212.896 11.5128 201.379 0 187.172 0ZM190.127 46.5822L183.481 31.6365L201.454 13.4616L180.839 28.5781L167.021 19.825L201.454 13.4616L190.122 46.5822H190.127Z" fill="url(#paint3_linear_3_2690)"/>
<path d="M187.172 0C172.965 0 161.447 11.5128 161.447 25.7141C161.447 39.9155 172.965 51.4282 187.172 51.4282C201.379 51.4282 212.896 39.9155 212.896 25.7141C212.896 11.5128 201.379 0 187.172 0ZM190.127 46.5822L183.481 31.6365L201.454 13.4616L180.839 28.5781L167.021 19.825L201.454 13.4616L190.122 46.5822H190.127Z" fill="url(#paint4_linear_3_2690)"/>
<path d="M187.172 0C172.965 0 161.447 11.5128 161.447 25.7141C161.447 39.9155 172.965 51.4282 187.172 51.4282C201.379 51.4282 212.896 39.9155 212.896 25.7141C212.896 11.5128 201.379 0 187.172 0ZM190.127 46.5822L183.481 31.6365L201.454 13.4616L180.839 28.5781L167.021 19.825L201.454 13.4616L190.122 46.5822H190.127Z" fill="url(#paint5_linear_3_2690)"/>
<defs>
<linearGradient id="paint0_linear_3_2690" x1="5.10482" y1="221.195" x2="284.47" y2="122.181" gradientUnits="userSpaceOnUse">
<stop stop-color="#939393"/>
<stop offset="0.5" stop-color="#808080"/>
<stop offset="1" stop-color="#FE5800"/>
</linearGradient>
<linearGradient id="paint1_linear_3_2690" x1="5.10482" y1="221.195" x2="284.47" y2="122.181" gradientUnits="userSpaceOnUse">
<stop stop-color="#939393"/>
<stop offset="0.5" stop-color="#808080"/>
<stop offset="1" stop-color="#FE5800"/>
</linearGradient>
<linearGradient id="paint2_linear_3_2690" x1="5.10482" y1="221.195" x2="284.47" y2="122.181" gradientUnits="userSpaceOnUse">
<stop stop-color="#939393"/>
<stop offset="0.5" stop-color="#808080"/>
<stop offset="1" stop-color="#FE5800"/>
</linearGradient>
<linearGradient id="paint3_linear_3_2690" x1="5.10489" y1="221.195" x2="284.47" y2="122.181" gradientUnits="userSpaceOnUse">
<stop stop-color="#D1D0CE"/>
<stop offset="0.5" stop-color="#D1D0CE"/>
<stop offset="1" stop-color="#FE5800"/>
</linearGradient>
<linearGradient id="paint4_linear_3_2690" x1="5.10489" y1="221.195" x2="284.47" y2="122.181" gradientUnits="userSpaceOnUse">
<stop stop-color="#D1D0CE"/>
<stop offset="0.5" stop-color="#D1D0CE"/>
<stop offset="1" stop-color="#FE5800"/>
</linearGradient>
<linearGradient id="paint5_linear_3_2690" x1="5.10489" y1="221.195" x2="284.47" y2="122.181" gradientUnits="userSpaceOnUse">
<stop stop-color="#D1D0CE"/>
<stop offset="0.5" stop-color="#D1D0CE"/>
<stop offset="1" stop-color="#FE5800"/>
</linearGradient>
</defs>
</svg>
