<svg width="51" height="51" viewBox="0 0 51 51" fill="none" xmlns="http://www.w3.org/2000/svg">
<path d="M40.3748 42.5C41.5435 42.5 42.4997 43.4563 42.4998 44.625C42.4998 45.7938 41.5435 46.75 40.3748 46.75H10.6248C9.4561 46.7499 8.49976 45.7937 8.49976 44.625C8.49984 43.4564 9.45615 42.5001 10.6248 42.5H40.3748ZM29.6404 5.37598C31.1321 3.87786 33.8372 3.95213 35.4119 5.52246L41.2322 11.3428C42.8578 12.9705 42.9237 15.5591 41.3767 17.1104L22.2585 36.2285C21.5679 36.9191 20.6517 37.3483 19.6785 37.4375L10.8171 38.2412C10.7534 38.2476 10.6894 38.25 10.6257 38.25C10.0649 38.2499 9.52337 38.0284 9.12183 37.627C8.67777 37.1808 8.45242 36.5604 8.50757 35.9336L9.31323 27.0723C9.40248 26.1011 9.83142 25.1828 10.5242 24.4922L29.6404 5.37598ZM28.3123 12.7158L34.0388 18.4424L38.1765 14.2988L32.4519 8.57422L28.3123 12.7158Z" fill="#244034"/>
<mask id="mask0_2_2518" style="mask-type:luminance" maskUnits="userSpaceOnUse" x="8" y="4" width="35" height="43">
<path d="M40.3748 42.5C41.5435 42.5 42.4997 43.4563 42.4998 44.625C42.4998 45.7938 41.5435 46.75 40.3748 46.75H10.6248C9.4561 46.7499 8.49976 45.7937 8.49976 44.625C8.49984 43.4564 9.45615 42.5001 10.6248 42.5H40.3748ZM29.6404 5.37598C31.1321 3.87786 33.8372 3.95213 35.4119 5.52246L41.2322 11.3428C42.8578 12.9705 42.9237 15.5591 41.3767 17.1104L22.2585 36.2285C21.5679 36.9191 20.6517 37.3483 19.6785 37.4375L10.8171 38.2412C10.7534 38.2476 10.6894 38.25 10.6257 38.25C10.0649 38.2499 9.52337 38.0284 9.12183 37.627C8.67777 37.1808 8.45242 36.5604 8.50757 35.9336L9.31323 27.0723C9.40248 26.1011 9.83142 25.1828 10.5242 24.4922L29.6404 5.37598ZM28.3123 12.7158L34.0388 18.4424L38.1765 14.2988L32.4519 8.57422L28.3123 12.7158Z" fill="white"/>
</mask>
<g mask="url(#mask0_2_2518)">
<rect width="51" height="51" fill="black"/>
</g>
</svg>
